<?xml version="1.0" encoding="UTF-8"?>
<svg id="Layer_1" data-name="Layer 1" xmlns="http://www.w3.org/2000/svg" viewBox="0 0 636.11 102.15">
  <defs>
    <style>
      .cls-1 {
        fill: #f7d17c;
      }

      .cls-1, .cls-2 {
        stroke-width: 0px;
      }

      .cls-2 {
        fill: #ca5d42;
      }
    </style>
  </defs>
  <path class="cls-1" d="m595.15,12.17c15.19,0,27.55,12.36,27.55,27.55v22.7c0,15.19-12.36,27.55-27.55,27.55H40.96c-15.19,0-27.55-12.36-27.55-27.55v-22.7c0-15.19,12.36-27.55,27.55-27.55h554.19m0-8H40.96C21.35,4.17,5.4,20.12,5.4,39.73v22.7c0,19.6,15.95,35.55,35.55,35.55h554.19c19.6,0,35.55-15.95,35.55-35.55v-22.7c0-19.6-15.95-35.55-35.55-35.55h0Z"/>
  <rect class="cls-1" x="17.4" y="16.17" width="601.3" height="69.81" rx="23.55" ry="23.55"/>
  <g>
    <path class="cls-2" d="m113.26,36.4l-10.46,29.48h-8.99l-10.46-29.48h7.64l7.31,22.26,7.35-22.26h7.6Z"/>
    <path class="cls-2" d="m123.43,42.15v5.96h9.62v5.54h-9.62v6.47h10.88v5.75h-18.06v-29.48h18.06v5.75h-10.88Z"/>
    <path class="cls-2" d="m139.64,43.31c1.26-2.28,3.02-4.06,5.27-5.33,2.25-1.27,4.81-1.91,7.67-1.91,3.5,0,6.5.92,8.99,2.77,2.49,1.85,4.16,4.37,5,7.56h-7.9c-.59-1.23-1.42-2.17-2.5-2.81-1.08-.64-2.3-.97-3.67-.97-2.21,0-4,.77-5.38,2.31-1.37,1.54-2.06,3.6-2.06,6.17s.69,4.63,2.06,6.17c1.37,1.54,3.16,2.31,5.38,2.31,1.37,0,2.6-.32,3.67-.97,1.08-.64,1.91-1.58,2.5-2.81h7.9c-.84,3.19-2.51,5.71-5,7.54-2.49,1.83-5.49,2.75-8.99,2.75-2.86,0-5.41-.64-7.67-1.91-2.25-1.27-4.01-3.04-5.27-5.31-1.26-2.27-1.89-4.86-1.89-7.77s.63-5.51,1.89-7.79Z"/>
    <path class="cls-2" d="m192.18,36.4v5.75h-7.81v23.73h-7.18v-23.73h-7.81v-5.75h22.81Z"/>
    <path class="cls-2" d="m202.11,64.24c-2.31-1.29-4.14-3.09-5.5-5.4s-2.04-4.91-2.04-7.79.68-5.47,2.04-7.77c1.36-2.3,3.19-4.09,5.5-5.38,2.31-1.29,4.85-1.93,7.62-1.93s5.31.64,7.62,1.93c2.31,1.29,4.13,3.08,5.46,5.38,1.33,2.3,2,4.89,2,7.77s-.67,5.48-2.02,7.79-3.16,4.11-5.46,5.4c-2.3,1.29-4.83,1.93-7.6,1.93s-5.31-.64-7.62-1.93Zm13.27-6.97c1.41-1.57,2.12-3.64,2.12-6.22s-.71-4.68-2.12-6.24c-1.41-1.55-3.3-2.33-5.65-2.33s-4.28.77-5.69,2.31c-1.41,1.54-2.12,3.63-2.12,6.26s.71,4.68,2.12,6.24c1.41,1.55,3.31,2.33,5.69,2.33s4.24-.78,5.65-2.35Z"/>
    <path class="cls-2" d="m243.84,65.88l-6.13-11.13h-1.72v11.13h-7.18v-29.48h12.05c2.32,0,4.3.41,5.94,1.22,1.64.81,2.86,1.93,3.67,3.34.81,1.41,1.22,2.99,1.22,4.72,0,1.96-.55,3.71-1.66,5.25-1.11,1.54-2.74,2.63-4.89,3.28l6.8,11.68h-8.11Zm-7.85-16.21h4.45c1.32,0,2.3-.32,2.96-.97.66-.64.99-1.55.99-2.73s-.33-2-.99-2.65c-.66-.64-1.65-.97-2.96-.97h-4.45v7.31Z"/>
    <path class="cls-2" d="m272.28,36.4v29.48h-7.18v-29.48h7.18Z"/>
    <path class="cls-2" d="m284.66,60.34h9.41v5.54h-16.59v-29.48h7.18v23.94Z"/>
    <path class="cls-2" d="m304.7,60.34h9.41v5.54h-16.59v-29.48h7.18v23.94Z"/>
    <path class="cls-2" d="m324.61,36.4v17.64c0,1.76.43,3.12,1.3,4.07.87.95,2.14,1.43,3.82,1.43s2.97-.48,3.87-1.43c.89-.95,1.34-2.31,1.34-4.07v-17.64h7.18v17.6c0,2.63-.56,4.86-1.68,6.68-1.12,1.82-2.62,3.19-4.52,4.12-1.89.92-4,1.39-6.32,1.39s-4.4-.45-6.24-1.36c-1.83-.91-3.28-2.28-4.35-4.12-1.06-1.83-1.6-4.07-1.6-6.7v-17.6h7.18Z"/>
    <path class="cls-2" d="m352.03,65.13c-1.71-.7-3.07-1.74-4.09-3.11-1.02-1.37-1.56-3.02-1.62-4.96h7.64c.11,1.09.49,1.93,1.13,2.5.64.57,1.48.86,2.52.86s1.9-.24,2.52-.73c.62-.49.92-1.17.92-2.04,0-.73-.25-1.33-.73-1.81-.49-.48-1.09-.87-1.81-1.18s-1.73-.66-3.04-1.05c-1.9-.59-3.46-1.18-4.66-1.76-1.2-.59-2.24-1.46-3.11-2.6-.87-1.15-1.3-2.65-1.3-4.49,0-2.74.99-4.89,2.98-6.45,1.99-1.55,4.58-2.33,7.77-2.33s5.87.78,7.85,2.33c1.99,1.55,3.05,3.72,3.19,6.49h-7.77c-.06-.95-.41-1.7-1.05-2.25-.64-.55-1.47-.82-2.48-.82-.87,0-1.57.23-2.1.69-.53.46-.8,1.13-.8,2,0,.95.45,1.69,1.34,2.23.9.53,2.3,1.11,4.2,1.72,1.9.64,3.45,1.26,4.64,1.85s2.22,1.44,3.09,2.56c.87,1.12,1.3,2.56,1.3,4.33s-.43,3.21-1.28,4.58c-.85,1.37-2.09,2.46-3.72,3.28-1.62.81-3.54,1.22-5.75,1.22s-4.09-.35-5.8-1.05Z"/>
    <path class="cls-2" d="m394.2,36.4v5.75h-7.81v23.73h-7.18v-23.73h-7.81v-5.75h22.81Z"/>
    <path class="cls-2" d="m412.85,65.88l-6.13-11.13h-1.72v11.13h-7.18v-29.48h12.05c2.32,0,4.3.41,5.94,1.22,1.64.81,2.86,1.93,3.68,3.34.81,1.41,1.22,2.99,1.22,4.72,0,1.96-.55,3.71-1.66,5.25-1.11,1.54-2.74,2.63-4.89,3.28l6.8,11.68h-8.11Zm-7.85-16.21h4.45c1.32,0,2.3-.32,2.96-.97.66-.64.99-1.55.99-2.73s-.33-2-.99-2.65c-.66-.64-1.65-.97-2.96-.97h-4.45v7.31Z"/>
    <path class="cls-2" d="m443.55,60.67h-11l-1.76,5.21h-7.52l10.67-29.48h8.32l10.67,29.48h-7.6l-1.76-5.21Zm-1.85-5.54l-3.65-10.79-3.61,10.79h7.27Z"/>
    <path class="cls-2" d="m477.36,36.4v5.75h-7.81v23.73h-7.18v-23.73h-7.81v-5.75h22.81Z"/>
    <path class="cls-2" d="m488.15,36.4v29.48h-7.18v-29.48h7.18Z"/>
    <path class="cls-2" d="m499.68,64.24c-2.31-1.29-4.14-3.09-5.5-5.4s-2.04-4.91-2.04-7.79.68-5.47,2.04-7.77c1.36-2.3,3.19-4.09,5.5-5.38,2.31-1.29,4.85-1.93,7.62-1.93s5.31.64,7.62,1.93c2.31,1.29,4.13,3.08,5.46,5.38,1.33,2.3,2,4.89,2,7.77s-.67,5.48-2.02,7.79c-1.34,2.31-3.17,4.11-5.46,5.4-2.3,1.29-4.83,1.93-7.6,1.93s-5.31-.64-7.62-1.93Zm13.27-6.97c1.41-1.57,2.12-3.64,2.12-6.22s-.71-4.68-2.12-6.24c-1.41-1.55-3.3-2.33-5.65-2.33s-4.28.77-5.69,2.31c-1.42,1.54-2.12,3.63-2.12,6.26s.71,4.68,2.12,6.24c1.41,1.55,3.31,2.33,5.69,2.33s4.24-.78,5.65-2.35Z"/>
    <path class="cls-2" d="m552.75,65.88h-7.18l-12.01-18.19v18.19h-7.18v-29.48h7.18l12.01,18.27v-18.27h7.18v29.48Z"/>
  </g>
</svg>